<?xml version="1.0" encoding="UTF-8" standalone="no"?>
<!DOCTYPE svg PUBLIC "-//W3C//DTD SVG 1.1//EN" "http://www.w3.org/Graphics/SVG/1.1/DTD/svg11.dtd">
<svg width="100%" height="100%" viewBox="0 0 824 640" version="1.1" xmlns="http://www.w3.org/2000/svg" xmlns:xlink="http://www.w3.org/1999/xlink" xml:space="preserve" xmlns:serif="http://www.serif.com/" style="fill-rule:evenodd;clip-rule:evenodd;stroke-linejoin:round;stroke-miterlimit:2;">
    <g transform="matrix(1,0,0,1,-100,-192.12)">
        <g transform="matrix(0.24,0,0,0.24,0,0)">
            <g id="_1---Layer" serif:id="1 – Layer" transform="matrix(4.166667,0,0,4.166667,0,0)">
                <g id="Value-Marks" serif:id="Value Marks" transform="matrix(0.24,0,0,0.24,0,0)">
                    <g transform="matrix(0.344658,0,0,3.56872,3575.30773,-6222.740311)">
                        <path d="M797,1985.513L797,2697.487C797,2707.153 715.745,2715 615.661,2715L301.339,2715C201.255,2715 120,2707.153 120,2697.487L120,1985.513C120,1975.847 201.255,1968 301.339,1968L615.661,1968C715.745,1968 797,1975.847 797,1985.513Z" style="fill:rgb(221,221,221);"/>
                    </g>
                    <g transform="matrix(0.344658,0,0,3.56872,3041.974397,-6221.907238)">
                        <path d="M797,1985.513L797,2697.487C797,2707.153 715.745,2715 615.661,2715L301.339,2715C201.255,2715 120,2707.153 120,2697.487L120,1985.513C120,1975.847 201.255,1968 301.339,1968L615.661,1968C715.745,1968 797,1975.847 797,1985.513Z" style="fill:rgb(221,221,221);"/>
                    </g>
                    <g transform="matrix(0.344658,0,0,3.56872,2508.641064,-6222.740311)">
                        <path d="M797,1985.513L797,2697.487C797,2707.153 715.745,2715 615.661,2715L301.339,2715C201.255,2715 120,2707.153 120,2697.487L120,1985.513C120,1975.847 201.255,1968 301.339,1968L615.661,1968C715.745,1968 797,1975.847 797,1985.513Z" style="fill:rgb(221,221,221);"/>
                    </g>
                    <g transform="matrix(0.344658,0,0,3.56872,1441.974397,-6221.907238)">
                        <path d="M797,1985.513L797,2697.487C797,2707.153 715.745,2715 615.661,2715L301.339,2715C201.255,2715 120,2707.153 120,2697.487L120,1985.513C120,1975.847 201.255,1968 301.339,1968L615.661,1968C715.745,1968 797,1975.847 797,1985.513Z" style="fill:rgb(221,221,221);"/>
                    </g>
                    <g transform="matrix(0.344658,0,0,3.56872,908.641064,-6221.907238)">
                        <path d="M797,1985.513L797,2697.487C797,2707.153 715.745,2715 615.661,2715L301.339,2715C201.255,2715 120,2707.153 120,2697.487L120,1985.513C120,1975.847 201.255,1968 301.339,1968L615.661,1968C715.745,1968 797,1975.847 797,1985.513Z" style="fill:rgb(221,221,221);"/>
                    </g>
                    <g transform="matrix(0.344658,0,0,3.56872,375.30773,-6221.907238)">
                        <path d="M797,1985.513L797,2697.487C797,2707.153 715.745,2715 615.661,2715L301.339,2715C201.255,2715 120,2707.153 120,2697.487L120,1985.513C120,1975.847 201.255,1968 301.339,1968L615.661,1968C715.745,1968 797,1975.847 797,1985.513Z" style="fill:rgb(221,221,221);"/>
                    </g>
                </g>
            </g>
        </g>
    </g>
</svg>
